<svg xmlns="http://www.w3.org/2000/svg" xmlns:xlink="http://www.w3.org/1999/xlink" width="1080" zoomAndPan="magnify" viewBox="0 0 810 809.999993" height="1080" preserveAspectRatio="xMidYMid meet" version="1.2"><g id="ce390e94f3"><path style=" stroke:none;fill-rule:evenodd;fill:#fddd04;fill-opacity:1;" d="M 400.902344 761.117188 C 401.71875 761.171875 402.539062 761.210938 403.367188 761.222656 C 433.78125 761.761719 459.207031 732.253906 442.371094 696.605469 C 440.523438 724.207031 428.382812 739.117188 402.691406 739.117188 C 402.082031 739.117188 401.488281 739.109375 400.902344 739.09375 C 400.316406 739.105469 399.71875 739.117188 399.113281 739.117188 C 373.421875 739.117188 361.28125 724.207031 359.433594 696.605469 C 342.597656 732.253906 368.023438 761.761719 398.4375 761.222656 C 399.265625 761.214844 400.085938 761.171875 400.902344 761.117188 Z M 400.902344 717.246094 C 401.542969 717.296875 402.203125 717.320312 402.882812 717.320312 C 425.453125 717.914062 430.242188 695.042969 424.660156 681.242188 C 421.078125 695.042969 410.636719 702.054688 400.902344 699.851562 C 391.167969 702.054688 380.726562 695.042969 377.144531 681.242188 C 371.566406 695.042969 376.347656 717.914062 398.921875 717.320312 C 399.601562 717.320312 400.261719 717.289062 400.902344 717.246094 Z M 400.902344 648.992188 C 403.382812 648.898438 405.742188 648.886719 407.949219 648.980469 C 479.015625 652.101562 569.570312 676.496094 606.914062 662.019531 C 632.570312 652.070312 673.988281 620.984375 693.320312 648.308594 C 699.171875 656.578125 675.625 677.164062 675.136719 652.8125 C 665.609375 633.203125 645.226562 662.515625 660.027344 678.078125 C 606.097656 731.429688 459.464844 670.601562 445.457031 666.648438 C 441.449219 665.515625 439.230469 669.78125 442.402344 675.445312 C 447.511719 684.578125 463.210938 697.914062 467.015625 711.976562 C 474.691406 740.296875 451.894531 785.730469 406.460938 786.988281 C 404.566406 787.039062 402.714844 787.019531 400.902344 786.925781 C 399.089844 787.019531 397.238281 787.042969 395.339844 786.988281 C 349.914062 785.730469 327.113281 740.296875 334.789062 711.976562 C 338.597656 697.914062 354.292969 684.578125 359.402344 675.445312 C 362.574219 669.78125 360.355469 665.515625 356.347656 666.648438 C 342.339844 670.601562 195.707031 731.429688 141.777344 678.078125 C 156.578125 662.515625 136.199219 633.203125 126.667969 652.8125 C 126.179688 677.167969 102.632812 656.578125 108.484375 648.308594 C 127.816406 620.984375 169.238281 652.070312 194.894531 662.019531 C 232.234375 676.496094 322.789062 652.097656 393.855469 648.980469 C 396.0625 648.886719 398.421875 648.886719 400.902344 648.992188 Z M 400.902344 564.742188 C 396.917969 564.167969 392.371094 565.875 392.0625 569.753906 C 387.46875 608.425781 391.574219 602.738281 378.207031 618.957031 C 359.25 641.964844 340.6875 639.953125 310.863281 641.609375 C 282.675781 643.175781 260.273438 645.074219 255.484375 632.929688 C 252.953125 626.511719 268.71875 578.5 312.335938 569.667969 C 327.835938 566.53125 356.476562 574.257812 356.464844 565.042969 C 356.441406 549.375 313.476562 554.046875 299.957031 557.527344 C 252.671875 569.707031 212.761719 589.003906 175.964844 642.335938 C 245.558594 678.523438 320.335938 643.015625 399.035156 638.925781 C 399.652344 638.988281 400.277344 639.058594 400.902344 639.121094 C 401.527344 639.058594 402.152344 638.984375 402.769531 638.925781 C 481.46875 643.015625 556.246094 678.523438 625.839844 642.335938 C 589.042969 589.003906 549.132812 569.707031 501.847656 557.527344 C 488.328125 554.046875 445.371094 549.375 445.339844 565.042969 C 445.332031 574.257812 473.96875 566.53125 489.46875 569.667969 C 533.082031 578.5 548.851562 626.511719 546.320312 632.929688 C 541.53125 645.074219 519.128906 643.175781 490.941406 641.609375 C 461.117188 639.953125 442.554688 641.96875 423.597656 618.957031 C 410.230469 602.738281 414.335938 608.425781 409.742188 569.753906 C 409.433594 565.875 404.886719 564.167969 400.902344 564.742188 Z M 400.902344 333.589844 C 398.84375 332.414062 397.011719 328.265625 396.871094 321.566406 C 396.203125 289.894531 387.941406 256.207031 391.132812 219.308594 C 392.433594 206.296875 396.503906 199.046875 400.902344 197.335938 C 405.296875 199.046875 409.371094 206.296875 410.671875 219.308594 C 413.863281 256.207031 405.601562 289.894531 404.933594 321.566406 C 404.792969 328.265625 402.960938 332.414062 400.902344 333.589844 Z M 400.902344 5.222656 C 353.53125 40.820312 278.457031 48.59375 279.757812 140.371094 C 279.023438 176.75 295.910156 197.117188 359.292969 196.507812 C 378.261719 196.324219 378.292969 261.332031 377.730469 289.867188 C 365.867188 269.609375 354.695312 255.816406 333.320312 239.644531 C 284.511719 197 261.375 187.953125 261.375 135.824219 C 261.375 96.175781 271.164062 83.574219 291.929688 56.996094 C 218.910156 68.882812 113.8125 131.515625 191.078125 207.148438 C 225.3125 240.421875 280.1875 213.542969 317.710938 244.980469 C 339.132812 260.535156 379.734375 307.441406 379.734375 339.667969 L 380.792969 358.652344 L 377.492188 443.78125 C 377.152344 448.765625 370.824219 447.765625 370.730469 443.277344 C 370.730469 351.320312 321.710938 286.136719 236.019531 286.136719 C 204.359375 286.136719 186.164062 292.71875 152.808594 291.398438 C 121.308594 291.800781 84.191406 266.667969 82.953125 240.101562 C 47.90625 273.78125 53.125 355.757812 117.570312 349 C 159.007812 340.253906 163.605469 300.238281 223.226562 300.238281 C 260.707031 300.003906 291.144531 300.90625 320.691406 331.753906 C 333.625 345.265625 344.71875 358.023438 351.949219 404.695312 C 352.621094 415.394531 348.21875 414.929688 345.644531 409.097656 C 323.519531 358.953125 300.523438 346.746094 259.753906 345.027344 C 194.195312 344.625 137.738281 440.902344 90.117188 440.902344 C 68.375 440.902344 55.785156 432.3125 43.183594 415.230469 C 44.316406 455.140625 49.808594 492.273438 92.835938 492.648438 C 119.226562 493.042969 140.667969 460.589844 154.921875 437.230469 C 179.65625 396.691406 226.957031 349.339844 278.71875 360.074219 C 324.136719 371.996094 350.460938 419.757812 350.460938 490.257812 C 350.460938 504.332031 344.75 529.140625 327.789062 529.140625 C 311.5625 529.140625 305.730469 525.234375 305.730469 509.382812 C 305.730469 480.195312 315.863281 411.160156 282.667969 411.160156 C 264.574219 410.460938 256.660156 421.082031 256.023438 434.90625 C 256.085938 450.199219 286.378906 463.121094 280.890625 439.265625 C 279.195312 431.90625 291.15625 428.9375 291.84375 440.054688 C 291.246094 463.996094 270.226562 461.210938 272.402344 512.804688 C 272.402344 552.472656 303.882812 544.277344 345.054688 544.519531 C 378.847656 548.5625 366.871094 584.777344 343.15625 584.890625 C 331.4375 585.367188 327.644531 578.292969 319.855469 577.199219 C 313.351562 576.304688 306.949219 578.136719 305.492188 582.816406 C 301.863281 602.390625 329.878906 607.835938 352.089844 607.835938 C 367.917969 608.660156 345.976562 621.304688 335.09375 621.640625 C 327.574219 621.871094 327.898438 629.515625 334.714844 629.6875 C 373.394531 628.597656 376.015625 602.070312 383.601562 566.382812 C 384.289062 557.144531 390.167969 553.128906 400.898438 552.589844 C 411.636719 553.128906 417.511719 557.144531 418.203125 566.382812 C 425.785156 602.070312 428.40625 628.597656 467.089844 629.6875 C 473.898438 629.515625 474.230469 621.871094 466.707031 621.640625 C 455.824219 621.304688 433.878906 608.660156 449.714844 607.835938 C 471.925781 607.835938 499.941406 602.390625 496.3125 582.816406 C 494.847656 578.136719 488.449219 576.304688 481.945312 577.199219 C 474.160156 578.292969 470.363281 585.367188 458.644531 584.890625 C 434.933594 584.773438 422.957031 548.5625 456.75 544.519531 C 497.917969 544.277344 529.402344 552.472656 529.402344 512.804688 C 531.578125 461.210938 510.554688 463.996094 509.957031 440.054688 C 510.640625 428.9375 522.605469 431.90625 520.910156 439.265625 C 515.421875 463.121094 545.714844 450.199219 545.773438 434.90625 C 545.140625 421.082031 537.230469 410.460938 519.136719 411.160156 C 485.941406 411.160156 496.074219 480.195312 496.074219 509.382812 C 496.074219 525.234375 490.238281 529.140625 474.015625 529.140625 C 457.050781 529.140625 451.335938 504.332031 451.335938 490.257812 C 451.335938 419.757812 477.664062 371.996094 523.082031 360.074219 C 574.847656 349.339844 622.144531 396.691406 646.878906 437.230469 C 661.132812 460.589844 682.578125 493.042969 708.964844 492.648438 C 751.992188 492.273438 757.484375 455.140625 758.617188 415.230469 C 746.019531 432.3125 733.425781 440.902344 711.679688 440.902344 C 664.0625 440.902344 607.605469 344.628906 542.050781 345.027344 C 501.277344 346.746094 478.28125 358.953125 456.15625 409.097656 C 453.585938 414.929688 449.179688 415.394531 449.851562 404.695312 C 457.085938 358.023438 468.179688 345.261719 481.113281 331.753906 C 510.65625 300.90625 541.09375 300.003906 578.578125 300.238281 C 638.195312 300.238281 642.792969 340.253906 684.230469 349 C 748.679688 355.757812 753.894531 273.78125 718.851562 240.101562 C 717.609375 266.667969 680.496094 291.800781 648.996094 291.398438 C 615.636719 292.722656 597.445312 286.136719 565.785156 286.136719 C 480.09375 286.136719 431.070312 351.320312 431.070312 443.277344 C 430.976562 447.765625 424.644531 448.765625 424.3125 443.78125 L 421.007812 358.652344 L 422.070312 339.667969 C 422.070312 307.441406 462.671875 260.535156 484.089844 244.980469 C 521.613281 213.542969 576.492188 240.421875 610.726562 207.148438 C 687.988281 131.519531 582.894531 68.882812 509.871094 56.996094 C 530.640625 83.574219 540.425781 96.175781 540.425781 135.824219 C 540.425781 187.953125 517.289062 197 468.484375 239.644531 C 447.105469 255.816406 435.9375 269.609375 424.070312 289.867188 C 423.507812 261.328125 423.542969 196.320312 442.507812 196.507812 C 505.886719 197.117188 522.777344 176.75 522.046875 140.371094 C 523.34375 48.59375 448.273438 40.820312 400.898438 5.222656 Z M 372.644531 62.8125 C 355.484375 67.574219 346.519531 95.304688 347.890625 124.148438 C 347.890625 139.417969 360.78125 159.679688 369.859375 166 C 363.660156 149.292969 354.410156 109.664062 372.644531 62.8125 Z M 391.378906 453.207031 C 391.378906 444.207031 382.117188 442.929688 381.769531 456.472656 C 383.058594 497.648438 364.210938 496.085938 363.066406 512.007812 C 363.066406 523.777344 365.359375 532.125 380.496094 530.53125 C 393.878906 530.53125 391.570312 505.175781 391.570312 493.441406 Z M 231.105469 241.203125 C 220.101562 259.128906 185.128906 275.066406 162.6875 275.066406 C 80.898438 275.066406 84.085938 186.496094 147.214844 144.722656 C 145.570312 205.066406 176.128906 241.039062 231.105469 241.203125 Z M 142.777344 359.425781 C 132.839844 398.773438 116.5625 423.332031 83.097656 423.332031 C 38.453125 418.957031 40.742188 354.453125 50.300781 329.636719 C 72.675781 369.992188 109.367188 372.648438 142.777344 359.425781 Z M 327.59375 500.535156 C 335.75 499.734375 338.851562 508.359375 335.804688 514.296875 C 332.757812 520.238281 324.277344 519.542969 320.617188 513.734375 C 317.824219 509.316406 319.542969 500.785156 327.59375 500.535156 Z M 107.148438 550.085938 C 88.582031 550.085938 65.769531 520.59375 63.179688 502.167969 C 74.640625 507.175781 88.734375 512.609375 102.816406 510.417969 C 118.84375 507.230469 119.707031 505.652344 128.136719 494.179688 C 143.101562 517.878906 139.617188 550.085938 107.148438 550.085938 Z M 139.4375 590.195312 C 115 597.679688 96.972656 567.546875 92.40625 558.574219 C 108.433594 568.445312 139.398438 567.957031 145.691406 550.359375 C 151.953125 567.144531 155.410156 582.667969 139.4375 590.195312 Z M 148.175781 621.398438 C 137.78125 619.601562 131.445312 614.855469 129.449219 607.09375 C 142.210938 609.113281 155.636719 605.332031 160.59375 594.621094 C 167.214844 606.203125 165.5 624.390625 148.175781 621.398438 Z M 266.785156 587.917969 C 255.746094 598.613281 245.125 618.644531 236.480469 631.4375 C 230.894531 639.699219 222.164062 636.808594 224.453125 632.015625 C 231.40625 617.457031 251.289062 592.699219 266.785156 587.917969 Z M 257.984375 580.953125 C 247.230469 591.824219 234.199219 604.601562 231.429688 607.890625 C 213.90625 628.746094 205.246094 640.914062 200.3125 628.757812 C 199.316406 626.304688 208.972656 611.832031 223.257812 601.351562 C 234.488281 593.109375 244.113281 584.980469 257.984375 580.953125 Z M 333.296875 772.667969 C 316.832031 781.421875 274.976562 771.382812 268.792969 751.019531 C 293.117188 739.109375 305.066406 729.785156 323.324219 715.390625 C 322.652344 742.523438 325.480469 751.296875 333.296875 772.667969 Z M 199.804688 715.976562 C 212.023438 714.292969 240.355469 716.113281 258.332031 710.378906 C 287.574219 701.050781 303.601562 698.664062 330.898438 687.191406 C 320.375 706.929688 290.480469 724.699219 280.714844 731.34375 C 255.476562 753.019531 204.820312 751.339844 199.804688 715.976562 Z M 429.160156 62.8125 C 446.320312 67.574219 455.285156 95.304688 453.914062 124.148438 C 453.914062 139.417969 441.023438 159.679688 431.945312 166.003906 C 438.144531 149.292969 447.394531 109.664062 429.160156 62.8125 Z M 410.425781 453.207031 C 410.425781 444.207031 419.6875 442.929688 420.035156 456.472656 C 418.746094 497.648438 437.585938 496.085938 438.738281 512.007812 C 438.738281 523.777344 436.445312 532.125 421.308594 530.53125 C 407.925781 530.53125 410.234375 505.179688 410.234375 493.441406 Z M 570.699219 241.203125 C 581.699219 259.128906 616.675781 275.066406 639.117188 275.066406 C 720.90625 275.066406 717.71875 186.496094 654.585938 144.722656 C 656.234375 205.066406 625.675781 241.039062 570.699219 241.203125 Z M 659.027344 359.429688 C 668.964844 398.773438 685.242188 423.332031 718.707031 423.332031 C 763.351562 418.960938 761.0625 354.453125 751.503906 329.636719 C 729.128906 369.992188 692.433594 372.648438 659.027344 359.429688 Z M 474.210938 500.535156 C 466.054688 499.734375 462.953125 508.359375 466 514.296875 C 469.046875 520.238281 477.527344 519.542969 481.1875 513.734375 C 483.976562 509.316406 482.261719 500.785156 474.210938 500.535156 Z M 694.652344 550.089844 C 713.222656 550.089844 736.035156 520.597656 738.625 502.171875 C 727.164062 507.175781 713.070312 512.609375 698.988281 510.417969 C 682.957031 507.230469 682.09375 505.652344 673.667969 494.183594 C 658.699219 517.878906 662.183594 550.089844 694.652344 550.089844 Z M 662.367188 590.195312 C 686.804688 597.679688 704.832031 567.546875 709.398438 558.574219 C 693.371094 568.445312 662.40625 567.957031 656.113281 550.359375 C 649.851562 567.144531 646.398438 582.671875 662.367188 590.195312 Z M 653.628906 621.398438 C 664.023438 619.601562 670.359375 614.855469 672.351562 607.09375 C 659.59375 609.113281 646.167969 605.332031 641.207031 594.621094 C 634.589844 606.207031 636.304688 624.390625 653.628906 621.398438 Z M 535.019531 587.921875 C 546.054688 598.613281 556.679688 618.644531 565.324219 631.4375 C 570.910156 639.699219 579.640625 636.8125 577.351562 632.015625 C 570.394531 617.457031 550.515625 592.699219 535.019531 587.921875 Z M 543.816406 580.953125 C 554.574219 591.824219 567.605469 604.601562 570.375 607.890625 C 587.898438 628.746094 596.558594 640.914062 601.492188 628.757812 C 602.488281 626.304688 592.832031 611.832031 578.542969 601.351562 C 567.316406 593.113281 557.691406 584.980469 543.816406 580.953125 Z M 468.507812 772.667969 C 484.972656 781.421875 526.828125 771.386719 533.007812 751.019531 C 508.6875 739.109375 496.738281 729.785156 478.480469 715.390625 C 479.152344 742.523438 476.324219 751.296875 468.507812 772.667969 Z M 602 715.976562 C 589.78125 714.292969 561.449219 716.117188 543.46875 710.378906 C 514.230469 701.050781 498.199219 698.667969 470.902344 687.191406 C 481.429688 706.929688 511.324219 724.699219 521.089844 731.34375 C 546.328125 753.019531 596.984375 751.339844 602 715.976562 "/></g></svg>